<?xml version="1.0" encoding="UTF-8" standalone="no"?>
<!-- Created with Inkscape (http://www.inkscape.org/) -->

<svg
   xmlns:dc="http://purl.org/dc/elements/1.1/"
   xmlns:cc="http://creativecommons.org/ns#"
   xmlns:rdf="http://www.w3.org/1999/02/22-rdf-syntax-ns#"
   xmlns:svg="http://www.w3.org/2000/svg"
   xmlns="http://www.w3.org/2000/svg"
   xmlns:sodipodi="http://sodipodi.sourceforge.net/DTD/sodipodi-0.dtd"
   xmlns:inkscape="http://www.inkscape.org/namespaces/inkscape"
   height="297mm"
   width="210mm"
   viewBox="0 0 744.09448819 1052.3622047"
   id="svg2"
   version="1.1"
   inkscape:version="0.91 r13725"
   sodipodi:docname="drawing.svg">
  <defs
     id="defs8" />
  <sodipodi:namedview
     pagecolor="#ffffff"
     bordercolor="#666666"
     borderopacity="1"
     objecttolerance="10"
     gridtolerance="10"
     guidetolerance="10"
     inkscape:pageopacity="0"
     inkscape:pageshadow="2"
     inkscape:window-width="1366"
     inkscape:window-height="714"
     id="namedview6"
     showgrid="false"
     inkscape:zoom="0.5"
     inkscape:cx="68.086819"
     inkscape:cy="793.21882"
     inkscape:window-x="0"
     inkscape:window-y="25"
     inkscape:window-maximized="1"
     inkscape:current-layer="svg2" />
  <metadata
     id="metadata4">
    <rdf:RDF>
      <cc:Work
         rdf:about="">
        <dc:format>image/svg+xml</dc:format>
        <dc:type
           rdf:resource="http://purl.org/dc/dcmitype/StillImage" />
        <dc:title></dc:title>
      </cc:Work>
    </rdf:RDF>
  </metadata>
  <path
     id="path3156"
     style="fill:none;fill-rule:evenodd;stroke:#000000;stroke-width:1px;stroke-linecap:butt;stroke-linejoin:miter;stroke-opacity:1"
     d="m 277.27105,276.85337 139.32776,0.19707 m -165.16501,48.52138 191.26826,0 m -95.49731,148.49283 95.61212,-148.54583 -25.90288,-48.46138 m -44.58862,0 9.16608,47.79125 -34.24575,149.19794 m -0.12092,-0.0168 -95.57729,-148.51099 25.90288,-48.46138 m 44.58862,0 -9.16608,47.79125 34.24575,149.19794"
     inkscape:connector-curvature="0" />
  <path
     inkscape:connector-curvature="0"
     d="m 237.27105,-283.14663 139.32776,0.19707 m -165.16501,48.52138 191.26826,0 m -95.49731,148.49283 95.61212,-148.54583 -25.90288,-48.46138 m -44.58862,0 9.16608,47.79125 -34.24575,149.19794 m -0.12092,-0.0168 -95.57729,-148.51099 25.90288,-48.46138 m 44.58862,0 -9.16608,47.79125 34.24575,149.19794"
     style="fill:none;fill-rule:evenodd;stroke:#000000;stroke-width:1px;stroke-linecap:butt;stroke-linejoin:miter;stroke-opacity:1"
     id="path3266" />
  <g
     id="g3268"
     transform="translate(0,-560)">
    <path
       inkscape:connector-curvature="0"
       d="m 571.54749,325.51884 25.90288,-48.46138"
       style="fill:none;fill-rule:evenodd;stroke:#000000;stroke-width:1px;stroke-linecap:butt;stroke-linejoin:miter;stroke-opacity:1"
       id="path3270"
       sodipodi:nodetypes="cc" />
    <path
       style="fill:none;fill-rule:evenodd;stroke:#000000;stroke-width:1px;stroke-linecap:butt;stroke-linejoin:miter;stroke-opacity:1"
       d="m 564.8496,243.43262 -6.73694,-0.4083 -7.80354,36.78809 -19.63813,37.49097"
       id="path3272"
       inkscape:connector-curvature="0"
       sodipodi:nodetypes="cccc" />
    <path
       style="fill:none;fill-rule:evenodd;stroke:#000000;stroke-width:1px;stroke-linecap:butt;stroke-linejoin:miter;stroke-opacity:1"
       d="M 597.35112,277.07288 564.59815,243.26522"
       id="path3274"
       inkscape:connector-curvature="0"
       sodipodi:nodetypes="cc" />
    <path
       style="fill:none;fill-rule:evenodd;stroke:#000000;stroke-width:1px;stroke-linecap:butt;stroke-linejoin:miter;stroke-opacity:1"
       d="M 571.41148,325.61541 530.76216,317.3648"
       id="path3276"
       inkscape:connector-curvature="0"
       sodipodi:nodetypes="cc" />
  </g>
  <path
     inkscape:connector-curvature="0"
     d="m -222.72895,-283.14663 139.32776,0.19707 m -69.39406,197.01421 95.61212,-148.54583 -25.90288,-48.46138 m -69.78921,196.97239 -95.57729,-148.51099 25.90288,-48.46138"
     style="fill:none;fill-rule:evenodd;stroke:#000000;stroke-width:1px;stroke-linecap:butt;stroke-linejoin:miter;stroke-opacity:1"
     id="path3278"
     sodipodi:nodetypes="cccccccc" />
  <path
     style="fill:none;fill-rule:evenodd;stroke:#000000;stroke-width:1px;stroke-linecap:butt;stroke-linejoin:miter;stroke-opacity:1"
     d="m -154.86746,-44.9668 75.80575,-37.90288 16.72186,-60.19868 57.9691,-72.46139 4.45917,-41.24724 -69.11701,-52.39515 -76.92055,-25.64019 -27.86976,23.4106 -51.28036,-3.34437 -36.78808,-2.22958 -7.80354,36.78809 -24.52539,46.8212 31.21414,65.77264 -10.03312,40.13245 81.37971,64.65785 11.1479,21.18102 z"
     id="path3280"
     inkscape:connector-curvature="0" />
  <path
     style="fill:none;fill-rule:evenodd;stroke:#000000;stroke-width:1px;stroke-linecap:butt;stroke-linejoin:miter;stroke-opacity:1"
     d="M -156.38273,-214.72128 C -296.69584,-358.97577 -295.90756,-358.97577 -295.90756,-358.97577"
     id="path3282"
     inkscape:connector-curvature="0"
     sodipodi:nodetypes="cc" />
  <path
     style="fill:none;fill-rule:evenodd;stroke:#000000;stroke-width:1px;stroke-linecap:butt;stroke-linejoin:miter;stroke-opacity:1"
     d="M -155.59445,-214.72128 14.67314,-374.74129"
     id="path3284"
     inkscape:connector-curvature="0" />
  <path
     style="fill:none;fill-rule:evenodd;stroke:#000000;stroke-width:1px;stroke-linecap:butt;stroke-linejoin:miter;stroke-opacity:1"
     d="m -156.38273,-214.72128 281.4145,-54.39104"
     id="path3286"
     inkscape:connector-curvature="0" />
  <path
     style="fill:none;fill-rule:evenodd;stroke:#000000;stroke-width:1px;stroke-linecap:butt;stroke-linejoin:miter;stroke-opacity:1"
     d="m -155.59445,-214.72128 5.51793,204.16346"
     id="path3288"
     inkscape:connector-curvature="0" />
  <path
     style="fill:none;fill-rule:evenodd;stroke:#000000;stroke-width:1px;stroke-linecap:butt;stroke-linejoin:miter;stroke-opacity:1"
     d="m -155.59445,-215.50956 -159.23174,-32.31931"
     id="path3290"
     inkscape:connector-curvature="0" />
  <g
     transform="translate(-460,-560)"
     id="g3292">
    <path
       sodipodi:nodetypes="cc"
       id="path3294"
       style="fill:none;fill-rule:evenodd;stroke:#000000;stroke-width:1px;stroke-linecap:butt;stroke-linejoin:miter;stroke-opacity:1"
       d="M 1127.1248,474.02983 1031.5475,325.51884"
       inkscape:connector-curvature="0" />
    <path
       sodipodi:nodetypes="cccccccc"
       inkscape:connector-curvature="0"
       id="path3296"
       d="m 990.671,317.30338 -4.8873,9.33023 31.2142,65.77264 -10.0332,40.13245 81.3798,64.65785 11.1479,21.18102 25.6401,-3.34437 3.8346,-1.91729"
       style="fill:none;fill-rule:evenodd;stroke:#000000;stroke-width:1px;stroke-linecap:butt;stroke-linejoin:miter;stroke-opacity:1" />
    <path
       inkscape:connector-curvature="0"
       id="path3298"
       d="m 1127.8403,472.36652 1.0944,40.49069"
       style="fill:none;fill-rule:evenodd;stroke:#000000;stroke-width:1px;stroke-linecap:butt;stroke-linejoin:miter;stroke-opacity:1"
       sodipodi:nodetypes="cc" />
    <path
       inkscape:connector-curvature="0"
       id="path3300"
       d="m 1032.0248,325.7399 -41.61241,-8.44608"
       style="fill:none;fill-rule:evenodd;stroke:#000000;stroke-width:1px;stroke-linecap:butt;stroke-linejoin:miter;stroke-opacity:1"
       sodipodi:nodetypes="cc" />
  </g>
  <g
     id="g3302"
     transform="translate(0,-560)">
    <path
       style="fill:none;fill-rule:evenodd;stroke:#000000;stroke-width:1px;stroke-linecap:butt;stroke-linejoin:miter;stroke-opacity:1"
       d="m 736.84189,277.20197 22.03297,-20.70691"
       id="path3304"
       inkscape:connector-curvature="0"
       sodipodi:nodetypes="cc" />
    <path
       style="fill:none;fill-rule:evenodd;stroke:#000000;stroke-width:1px;stroke-linecap:butt;stroke-linejoin:miter;stroke-opacity:1"
       d="m 762.65398,326.13717 55.9863,-10.82088"
       id="path3306"
       inkscape:connector-curvature="0"
       sodipodi:nodetypes="cc" />
    <path
       sodipodi:nodetypes="ccc"
       inkscape:connector-curvature="0"
       id="path3308"
       d="m 818.79366,315.1995 1.29476,-11.97649 -61.56778,-46.67234"
       style="fill:none;fill-rule:evenodd;stroke:#000000;stroke-width:1px;stroke-linecap:butt;stroke-linejoin:miter;stroke-opacity:1" />
    <path
       sodipodi:nodetypes="cc"
       id="path3310"
       style="fill:none;fill-rule:evenodd;stroke:#000000;stroke-width:1px;stroke-linecap:butt;stroke-linejoin:miter;stroke-opacity:1"
       d="M 762.81687,325.51882 736.91399,277.05744"
       inkscape:connector-curvature="0" />
  </g>
  <g
     id="g3312"
     transform="translate(0,-560)">
    <path
       style="fill:none;fill-rule:evenodd;stroke:#000000;stroke-width:1px;stroke-linecap:butt;stroke-linejoin:miter;stroke-opacity:1"
       d="m 667.85368,472.8594 1.07408,39.74125"
       id="path3314"
       inkscape:connector-curvature="0"
       sodipodi:nodetypes="cc" />
    <path
       inkscape:connector-curvature="0"
       id="path3316"
       d="m 762.31578,326.20254 56.56145,-10.93205"
       style="fill:none;fill-rule:evenodd;stroke:#000000;stroke-width:1px;stroke-linecap:butt;stroke-linejoin:miter;stroke-opacity:1"
       sodipodi:nodetypes="cc" />
    <path
       style="fill:none;fill-rule:evenodd;stroke:#000000;stroke-width:1px;stroke-linecap:butt;stroke-linejoin:miter;stroke-opacity:1"
       d="m 668.96712,513.11591 71.97117,-35.98559 16.72186,-60.19868 57.9691,-72.46139 3.16441,-29.27075"
       id="path3318"
       inkscape:connector-curvature="0"
       sodipodi:nodetypes="ccccc" />
    <path
       inkscape:connector-curvature="0"
       d="M 667.20475,474.06465 762.81687,325.51882"
       style="fill:none;fill-rule:evenodd;stroke:#000000;stroke-width:1px;stroke-linecap:butt;stroke-linejoin:miter;stroke-opacity:1"
       id="path3320"
       sodipodi:nodetypes="cc" />
  </g>
  <g
     transform="translate(-460,-560)"
     id="g3322">
    <path
       sodipodi:nodetypes="cc"
       inkscape:connector-curvature="0"
       id="path3324"
       d="m 1057.3004,277.02059 -32.5307,-33.57805"
       style="fill:none;fill-rule:evenodd;stroke:#000000;stroke-width:1px;stroke-linecap:butt;stroke-linejoin:miter;stroke-opacity:1" />
    <path
       inkscape:connector-curvature="0"
       id="path3326"
       d="m 1196.7226,277.31402 22.0494,-20.72233"
       style="fill:none;fill-rule:evenodd;stroke:#000000;stroke-width:1px;stroke-linecap:butt;stroke-linejoin:miter;stroke-opacity:1"
       sodipodi:nodetypes="cc" />
    <path
       inkscape:connector-curvature="0"
       d="m 1057.271,276.85337 139.3278,0.19707"
       style="fill:none;fill-rule:evenodd;stroke:#000000;stroke-width:1px;stroke-linecap:butt;stroke-linejoin:miter;stroke-opacity:1"
       id="path3328"
       sodipodi:nodetypes="cc" />
    <path
       style="fill:none;fill-rule:evenodd;stroke:#000000;stroke-width:1px;stroke-linecap:butt;stroke-linejoin:miter;stroke-opacity:1"
       d="m 1218.5206,256.55067 -7.5492,-5.72281 -76.9205,-25.64019 -27.8698,23.4106 -51.2804,-3.34437 -30.0511,-1.82128"
       id="path3330"
       inkscape:connector-curvature="0"
       sodipodi:nodetypes="cccccc" />
  </g>
  <path
     inkscape:connector-curvature="0"
     d="m 1037.271,-263.14663 139.3278,0.19707 m -165.165,48.52138 191.2683,0 m -95.4974,148.49283 95.6122,-148.54583 -25.9029,-48.46138 m -44.5886,0 9.166,47.79125 -34.2457,149.19794 m -0.1209,-0.0168 -95.5773,-148.51099 25.9029,-48.46138 m 44.5886,0 -9.1661,47.79125 34.2458,149.19794"
     style="fill:none;fill-rule:evenodd;stroke:#000000;stroke-width:1px;stroke-linecap:butt;stroke-linejoin:miter;stroke-opacity:1"
     id="path3332" />
  <g
     transform="translate(428,-548)"
     id="g3334">
    <path
       inkscape:connector-curvature="0"
       d="m 571.54749,325.51884 25.90288,-48.46138"
       style="fill:none;fill-rule:evenodd;stroke:#000000;stroke-width:1px;stroke-linecap:butt;stroke-linejoin:miter;stroke-opacity:1"
       id="path3336"
       sodipodi:nodetypes="cc" />
    <path
       style="fill:none;fill-rule:evenodd;stroke:#000000;stroke-width:1px;stroke-linecap:butt;stroke-linejoin:miter;stroke-opacity:1"
       d="m 564.8496,243.43262 -6.73694,-0.4083 -7.80354,36.78809 -19.63813,37.49097"
       id="path3338"
       inkscape:connector-curvature="0"
       sodipodi:nodetypes="cccc" />
    <path
       style="fill:none;fill-rule:evenodd;stroke:#000000;stroke-width:1px;stroke-linecap:butt;stroke-linejoin:miter;stroke-opacity:1"
       d="M 597.35112,277.07288 564.59815,243.26522"
       id="path3340"
       inkscape:connector-curvature="0"
       sodipodi:nodetypes="cc" />
    <path
       style="fill:none;fill-rule:evenodd;stroke:#000000;stroke-width:1px;stroke-linecap:butt;stroke-linejoin:miter;stroke-opacity:1"
       d="M 571.41148,325.61541 530.76216,317.3648"
       id="path3342"
       inkscape:connector-curvature="0"
       sodipodi:nodetypes="cc" />
  </g>
  <g
     transform="translate(-30,-530)"
     id="g3344">
    <path
       sodipodi:nodetypes="cc"
       id="path3346"
       style="fill:none;fill-rule:evenodd;stroke:#000000;stroke-width:1px;stroke-linecap:butt;stroke-linejoin:miter;stroke-opacity:1"
       d="M 1127.1248,474.02983 1031.5475,325.51884"
       inkscape:connector-curvature="0" />
    <path
       sodipodi:nodetypes="cccccccc"
       inkscape:connector-curvature="0"
       id="path3348"
       d="m 990.671,317.30338 -4.8873,9.33023 31.2142,65.77264 -10.0332,40.13245 81.3798,64.65785 11.1479,21.18102 25.6401,-3.34437 3.8346,-1.91729"
       style="fill:none;fill-rule:evenodd;stroke:#000000;stroke-width:1px;stroke-linecap:butt;stroke-linejoin:miter;stroke-opacity:1" />
    <path
       inkscape:connector-curvature="0"
       id="path3350"
       d="m 1127.8403,472.36652 1.0944,40.49069"
       style="fill:none;fill-rule:evenodd;stroke:#000000;stroke-width:1px;stroke-linecap:butt;stroke-linejoin:miter;stroke-opacity:1"
       sodipodi:nodetypes="cc" />
    <path
       inkscape:connector-curvature="0"
       id="path3352"
       d="m 1032.0248,325.7399 -41.61241,-8.44608"
       style="fill:none;fill-rule:evenodd;stroke:#000000;stroke-width:1px;stroke-linecap:butt;stroke-linejoin:miter;stroke-opacity:1"
       sodipodi:nodetypes="cc" />
  </g>
  <g
     transform="translate(452,-548)"
     id="g3354">
    <path
       style="fill:none;fill-rule:evenodd;stroke:#000000;stroke-width:1px;stroke-linecap:butt;stroke-linejoin:miter;stroke-opacity:1"
       d="m 736.84189,277.20197 22.03297,-20.70691"
       id="path3356"
       inkscape:connector-curvature="0"
       sodipodi:nodetypes="cc" />
    <path
       style="fill:none;fill-rule:evenodd;stroke:#000000;stroke-width:1px;stroke-linecap:butt;stroke-linejoin:miter;stroke-opacity:1"
       d="m 762.65398,326.13717 55.9863,-10.82088"
       id="path3358"
       inkscape:connector-curvature="0"
       sodipodi:nodetypes="cc" />
    <path
       sodipodi:nodetypes="ccc"
       inkscape:connector-curvature="0"
       id="path3360"
       d="m 818.79366,315.1995 1.29476,-11.97649 -61.56778,-46.67234"
       style="fill:none;fill-rule:evenodd;stroke:#000000;stroke-width:1px;stroke-linecap:butt;stroke-linejoin:miter;stroke-opacity:1" />
    <path
       sodipodi:nodetypes="cc"
       id="path3362"
       style="fill:none;fill-rule:evenodd;stroke:#000000;stroke-width:1px;stroke-linecap:butt;stroke-linejoin:miter;stroke-opacity:1"
       d="M 762.81687,325.51882 736.91399,277.05744"
       inkscape:connector-curvature="0" />
  </g>
  <g
     transform="translate(450,-530)"
     id="g3364">
    <path
       style="fill:none;fill-rule:evenodd;stroke:#000000;stroke-width:1px;stroke-linecap:butt;stroke-linejoin:miter;stroke-opacity:1"
       d="m 667.85368,472.8594 1.07408,39.74125"
       id="path3366"
       inkscape:connector-curvature="0"
       sodipodi:nodetypes="cc" />
    <path
       inkscape:connector-curvature="0"
       id="path3368"
       d="m 762.31578,326.20254 56.56145,-10.93205"
       style="fill:none;fill-rule:evenodd;stroke:#000000;stroke-width:1px;stroke-linecap:butt;stroke-linejoin:miter;stroke-opacity:1"
       sodipodi:nodetypes="cc" />
    <path
       style="fill:none;fill-rule:evenodd;stroke:#000000;stroke-width:1px;stroke-linecap:butt;stroke-linejoin:miter;stroke-opacity:1"
       d="m 668.96712,513.11591 71.97117,-35.98559 16.72186,-60.19868 57.9691,-72.46139 3.16441,-29.27075"
       id="path3370"
       inkscape:connector-curvature="0"
       sodipodi:nodetypes="ccccc" />
    <path
       inkscape:connector-curvature="0"
       d="M 667.20475,474.06465 762.81687,325.51882"
       style="fill:none;fill-rule:evenodd;stroke:#000000;stroke-width:1px;stroke-linecap:butt;stroke-linejoin:miter;stroke-opacity:1"
       id="path3372"
       sodipodi:nodetypes="cc" />
  </g>
  <g
     transform="translate(-20,-556)"
     id="g3374">
    <path
       sodipodi:nodetypes="cc"
       inkscape:connector-curvature="0"
       id="path3376"
       d="m 1057.3004,277.02059 -32.5307,-33.57805"
       style="fill:none;fill-rule:evenodd;stroke:#000000;stroke-width:1px;stroke-linecap:butt;stroke-linejoin:miter;stroke-opacity:1" />
    <path
       inkscape:connector-curvature="0"
       id="path3378"
       d="m 1196.7226,277.31402 22.0494,-20.72233"
       style="fill:none;fill-rule:evenodd;stroke:#000000;stroke-width:1px;stroke-linecap:butt;stroke-linejoin:miter;stroke-opacity:1"
       sodipodi:nodetypes="cc" />
    <path
       inkscape:connector-curvature="0"
       d="m 1057.271,276.85337 139.3278,0.19707"
       style="fill:none;fill-rule:evenodd;stroke:#000000;stroke-width:1px;stroke-linecap:butt;stroke-linejoin:miter;stroke-opacity:1"
       id="path3380"
       sodipodi:nodetypes="cc" />
    <path
       style="fill:none;fill-rule:evenodd;stroke:#000000;stroke-width:1px;stroke-linecap:butt;stroke-linejoin:miter;stroke-opacity:1"
       d="m 1218.5206,256.55067 -7.5492,-5.72281 -76.9205,-25.64019 -27.8698,23.4106 -51.2804,-3.34437 -30.0511,-1.82128"
       id="path3382"
       inkscape:connector-curvature="0"
       sodipodi:nodetypes="cccccc" />
  </g>
  <path
     id="path3394"
     style="fill:none;fill-rule:evenodd;stroke:#000000;stroke-width:1px;stroke-linecap:butt;stroke-linejoin:miter;stroke-opacity:1"
     d="m -742.72895,-283.14663 139.32776,0.19707 m -165.16501,48.52138 191.26826,0 m -95.49731,148.49283 95.61212,-148.54583 -25.90288,-48.46138 m -44.58862,0 9.16608,47.79125 -34.24575,149.19794 m -0.12092,-0.0168 -95.57729,-148.51099 25.90288,-48.46138 m 44.58862,0 -9.16608,47.79125 34.24575,149.19794"
     inkscape:connector-curvature="0" />
  <path
     sodipodi:nodetypes="cc"
     inkscape:connector-curvature="0"
     id="path3396"
     d="M -676.38273,-214.72128 C -816.69584,-358.97577 -815.90756,-358.97577 -815.90756,-358.97577"
     style="fill:none;fill-rule:evenodd;stroke:#000000;stroke-width:1px;stroke-linecap:butt;stroke-linejoin:miter;stroke-opacity:1" />
  <path
     inkscape:connector-curvature="0"
     id="path3398"
     d="m -675.59445,-214.72128 170.26759,-160.02001"
     style="fill:none;fill-rule:evenodd;stroke:#000000;stroke-width:1px;stroke-linecap:butt;stroke-linejoin:miter;stroke-opacity:1" />
  <path
     inkscape:connector-curvature="0"
     id="path3400"
     d="m -676.38273,-214.72128 281.4145,-54.39104"
     style="fill:none;fill-rule:evenodd;stroke:#000000;stroke-width:1px;stroke-linecap:butt;stroke-linejoin:miter;stroke-opacity:1" />
  <path
     inkscape:connector-curvature="0"
     id="path3402"
     d="m -675.59445,-214.72128 5.51793,204.16346"
     style="fill:none;fill-rule:evenodd;stroke:#000000;stroke-width:1px;stroke-linecap:butt;stroke-linejoin:miter;stroke-opacity:1" />
  <path
     inkscape:connector-curvature="0"
     id="path3404"
     d="m -675.59445,-215.50956 -159.23174,-32.31931"
     style="fill:none;fill-rule:evenodd;stroke:#000000;stroke-width:1px;stroke-linecap:butt;stroke-linejoin:miter;stroke-opacity:1" />
  <path
     inkscape:connector-curvature="0"
     d="m 1457.271,-263.14663 139.3278,0.19707 m -165.165,48.52138 191.2683,0 m -95.4974,148.49283 95.6122,-148.54583 -25.9029,-48.46138 m -44.5886,0 9.166,47.79125 -34.2457,149.19794 m -0.1209,-0.0168 -95.5773,-148.51099 25.9029,-48.46138 m 44.5886,0 -9.1661,47.79125 34.2458,149.19794"
     style="fill:none;fill-rule:evenodd;stroke:#000000;stroke-width:1px;stroke-linecap:butt;stroke-linejoin:miter;stroke-opacity:1"
     id="path3406" />
  <g
     transform="translate(848,-548)"
     id="g3408">
    <path
       inkscape:connector-curvature="0"
       d="m 571.54749,325.51884 25.90288,-48.46138"
       style="fill:none;fill-rule:evenodd;stroke:#000000;stroke-width:1px;stroke-linecap:butt;stroke-linejoin:miter;stroke-opacity:1"
       id="path3410"
       sodipodi:nodetypes="cc" />
    <path
       style="fill:none;fill-rule:evenodd;stroke:#000000;stroke-width:1px;stroke-linecap:butt;stroke-linejoin:miter;stroke-opacity:1"
       d="m 564.8496,243.43262 c 0,0 -4.94678,-1.77094 -6.73694,-0.4083 -9.97463,7.59253 -3.555,24.99446 -7.80354,36.78809 -4.78135,13.27268 -19.63813,37.49097 -19.63813,37.49097"
       id="path3412"
       inkscape:connector-curvature="0"
       sodipodi:nodetypes="cssc" />
    <path
       style="fill:none;fill-rule:evenodd;stroke:#000000;stroke-width:1px;stroke-linecap:butt;stroke-linejoin:miter;stroke-opacity:1"
       d="M 597.35112,277.07288 564.59815,243.26522"
       id="path3414"
       inkscape:connector-curvature="0"
       sodipodi:nodetypes="cc" />
    <path
       style="fill:none;fill-rule:evenodd;stroke:#000000;stroke-width:1px;stroke-linecap:butt;stroke-linejoin:miter;stroke-opacity:1"
       d="M 571.41148,325.61541 530.76216,317.3648"
       id="path3416"
       inkscape:connector-curvature="0"
       sodipodi:nodetypes="cc" />
  </g>
  <g
     transform="translate(390,-530)"
     id="g3418">
    <path
       sodipodi:nodetypes="cc"
       id="path3420"
       style="fill:none;fill-rule:evenodd;stroke:#000000;stroke-width:1px;stroke-linecap:butt;stroke-linejoin:miter;stroke-opacity:1"
       d="M 1127.1248,474.02983 1031.5475,325.51884"
       inkscape:connector-curvature="0" />
    <path
       sodipodi:nodetypes="cssssssc"
       inkscape:connector-curvature="0"
       id="path3422"
       d="m 990.671,317.30338 c 0,0 -4.81812,5.81999 -4.8873,9.33023 -0.4782,24.26316 28.8141,41.62374 31.2142,65.77264 1.3637,13.7216 -14.4651,27.07488 -10.0332,40.13245 11.1355,32.80805 59.2743,37.97989 81.3798,64.65785 5.0906,6.14353 4.0648,17.50869 11.1479,21.18102 7.6518,3.96718 17.3975,-0.82465 25.6401,-3.34437 1.3666,-0.41778 3.8346,-1.91729 3.8346,-1.91729"
       style="fill:none;fill-rule:evenodd;stroke:#000000;stroke-width:1px;stroke-linecap:butt;stroke-linejoin:miter;stroke-opacity:1" />
    <path
       inkscape:connector-curvature="0"
       id="path3424"
       d="m 1127.8403,472.36652 1.0944,40.49069"
       style="fill:none;fill-rule:evenodd;stroke:#000000;stroke-width:1px;stroke-linecap:butt;stroke-linejoin:miter;stroke-opacity:1"
       sodipodi:nodetypes="cc" />
    <path
       inkscape:connector-curvature="0"
       id="path3426"
       d="m 1032.0248,325.7399 -41.61241,-8.44608"
       style="fill:none;fill-rule:evenodd;stroke:#000000;stroke-width:1px;stroke-linecap:butt;stroke-linejoin:miter;stroke-opacity:1"
       sodipodi:nodetypes="cc" />
  </g>
  <g
     transform="translate(872,-548)"
     id="g3428">
    <path
       style="fill:none;fill-rule:evenodd;stroke:#000000;stroke-width:1px;stroke-linecap:butt;stroke-linejoin:miter;stroke-opacity:1"
       d="m 736.84189,277.20197 22.03297,-20.70691"
       id="path3430"
       inkscape:connector-curvature="0"
       sodipodi:nodetypes="cc" />
    <path
       style="fill:none;fill-rule:evenodd;stroke:#000000;stroke-width:1px;stroke-linecap:butt;stroke-linejoin:miter;stroke-opacity:1"
       d="m 762.65398,326.13717 55.9863,-10.82088"
       id="path3432"
       inkscape:connector-curvature="0"
       sodipodi:nodetypes="cc" />
    <path
       sodipodi:nodetypes="csc"
       inkscape:connector-curvature="0"
       id="path3434"
       d="m 818.79366,315.1995 c 0,0 2.88515,-8.28944 1.29476,-11.97649 -10.19992,-23.64683 -61.56778,-46.67234 -61.56778,-46.67234"
       style="fill:none;fill-rule:evenodd;stroke:#000000;stroke-width:1px;stroke-linecap:butt;stroke-linejoin:miter;stroke-opacity:1" />
    <path
       sodipodi:nodetypes="cc"
       id="path3436"
       style="fill:none;fill-rule:evenodd;stroke:#000000;stroke-width:1px;stroke-linecap:butt;stroke-linejoin:miter;stroke-opacity:1"
       d="M 762.81687,325.51882 736.91399,277.05744"
       inkscape:connector-curvature="0" />
  </g>
  <g
     transform="translate(870,-530)"
     id="g3438">
    <path
       style="fill:none;fill-rule:evenodd;stroke:#000000;stroke-width:1px;stroke-linecap:butt;stroke-linejoin:miter;stroke-opacity:1"
       d="m 667.85368,472.8594 1.07408,39.74125"
       id="path3440"
       inkscape:connector-curvature="0"
       sodipodi:nodetypes="cc" />
    <path
       inkscape:connector-curvature="0"
       id="path3442"
       d="m 762.31578,326.20254 56.56145,-10.93205"
       style="fill:none;fill-rule:evenodd;stroke:#000000;stroke-width:1px;stroke-linecap:butt;stroke-linejoin:miter;stroke-opacity:1"
       sodipodi:nodetypes="cc" />
    <path
       style="fill:none;fill-rule:evenodd;stroke:#000000;stroke-width:1px;stroke-linecap:butt;stroke-linejoin:miter;stroke-opacity:1"
       d="m 668.96712,513.11591 c 0,0 54.91763,-15.28293 71.97117,-35.98559 13.24123,-16.07459 7.23728,-41.65777 16.72186,-60.19868 14.08703,-27.538 46.17437,-43.86646 57.9691,-72.46139 3.74211,-9.0723 3.16441,-29.27075 3.16441,-29.27075"
       id="path3444"
       inkscape:connector-curvature="0"
       sodipodi:nodetypes="csssc" />
    <path
       inkscape:connector-curvature="0"
       d="M 667.20475,474.06465 762.81687,325.51882"
       style="fill:none;fill-rule:evenodd;stroke:#000000;stroke-width:1px;stroke-linecap:butt;stroke-linejoin:miter;stroke-opacity:1"
       id="path3446"
       sodipodi:nodetypes="cc" />
  </g>
  <g
     transform="translate(400,-556)"
     id="g3448">
    <path
       sodipodi:nodetypes="cc"
       inkscape:connector-curvature="0"
       id="path3450"
       d="m 1057.3004,277.02059 -32.5307,-33.57805"
       style="fill:none;fill-rule:evenodd;stroke:#000000;stroke-width:1px;stroke-linecap:butt;stroke-linejoin:miter;stroke-opacity:1" />
    <path
       inkscape:connector-curvature="0"
       id="path3452"
       d="m 1196.7226,277.31402 22.0494,-20.72233"
       style="fill:none;fill-rule:evenodd;stroke:#000000;stroke-width:1px;stroke-linecap:butt;stroke-linejoin:miter;stroke-opacity:1"
       sodipodi:nodetypes="cc" />
    <path
       inkscape:connector-curvature="0"
       d="m 1057.271,276.85337 139.3278,0.19707"
       style="fill:none;fill-rule:evenodd;stroke:#000000;stroke-width:1px;stroke-linecap:butt;stroke-linejoin:miter;stroke-opacity:1"
       id="path3454"
       sodipodi:nodetypes="cc" />
    <path
       style="fill:none;fill-rule:evenodd;stroke:#000000;stroke-width:1px;stroke-linecap:butt;stroke-linejoin:miter;stroke-opacity:1"
       d="m 1218.5206,256.55067 c 0,0 -4.7559,-4.2501 -7.5492,-5.72281 -23.9077,-12.605 -50.3719,-30.70347 -76.9205,-25.64019 -11.9177,2.27291 -16.3409,19.63137 -27.8698,23.4106 -16.2775,5.33586 -34.1844,-2.26884 -51.2804,-3.34437 -10.0156,-0.6301 -30.0511,-1.82128 -30.0511,-1.82128"
       id="path3456"
       inkscape:connector-curvature="0"
       sodipodi:nodetypes="cssssc" />
  </g>
  <path
     style="fill:none;fill-rule:evenodd;stroke:#000000;stroke-width:1px;stroke-linecap:butt;stroke-linejoin:miter;stroke-opacity:1"
     d="m 270,250.36221 -28,-52"
     id="path3458"
     inkscape:connector-curvature="0" />
  <path
     style="fill:none;fill-rule:evenodd;stroke:#000000;stroke-width:1px;stroke-linecap:butt;stroke-linejoin:miter;stroke-opacity:1"
     d="m 324,248.36221 -6,-52"
     id="path3460"
     inkscape:connector-curvature="0" />
  <path
     style="fill:none;fill-rule:evenodd;stroke:#000000;stroke-width:1px;stroke-linecap:butt;stroke-linejoin:miter;stroke-opacity:1"
     d="m 374,246.36221 22,-40"
     id="path3462"
     inkscape:connector-curvature="0" />
  <path
     style="fill:none;fill-rule:evenodd;stroke:#000000;stroke-width:1px;stroke-linecap:butt;stroke-linejoin:miter;stroke-opacity:1"
     d="m 434,258.36221 36,-28"
     id="path3464"
     inkscape:connector-curvature="0" />
  <path
     style="fill:none;fill-rule:evenodd;stroke:#000000;stroke-width:1px;stroke-linecap:butt;stroke-linejoin:miter;stroke-opacity:1"
     d="m 462,324.36221 56,2"
     id="path3466"
     inkscape:connector-curvature="0" />
  <path
     style="fill:none;fill-rule:evenodd;stroke:#000000;stroke-width:1px;stroke-linecap:butt;stroke-linejoin:miter;stroke-opacity:1"
     d="m 224,320.36221 -66,-8"
     id="path3468"
     inkscape:connector-curvature="0" />
  <path
     style="fill:none;fill-rule:evenodd;stroke:#000000;stroke-width:1px;stroke-linecap:butt;stroke-linejoin:miter;stroke-opacity:1"
     d="m 246,406.36221 -44,34"
     id="path3470"
     inkscape:connector-curvature="0" />
  <path
     style="fill:none;fill-rule:evenodd;stroke:#000000;stroke-width:1px;stroke-linecap:butt;stroke-linejoin:miter;stroke-opacity:1"
     d="m 430,406.36221 36,40"
     id="path3472"
     inkscape:connector-curvature="0" />
</svg>
